<svg width="132" height="66" viewBox="0 0 132 66" fill="none" xmlns="http://www.w3.org/2000/svg">
<g clip-path="url(#clip0_70_3)">
<path d="M20.4139 16.8075C17.375 16.8075 14.5233 17.6253 12.0651 19.0421V16.9685C4.3357 16.9685 0 23.2278 0 30.9425V65.5235C7.73586 65.5235 12.0651 59.2641 12.0651 51.5494V47.8981C14.5233 49.3149 17.3686 50.1327 20.4139 50.1327C29.6337 50.1327 37.105 42.6756 37.105 33.4733C37.105 24.2711 29.6337 16.8139 20.4139 16.8139V16.8075ZM20.5752 41.51C16.1814 41.51 12.6135 37.9424 12.6135 33.5635C12.6135 29.1845 16.1879 25.6169 20.5752 25.6169C24.9625 25.6169 28.5369 29.1845 28.5369 33.5635C28.5369 37.9424 24.9625 41.51 20.5752 41.51Z" fill="#55B2E5"/>
<path d="M63.8547 16.9685V18.6943C61.6223 17.5932 59.1125 16.9685 56.4543 16.9685C47.2345 16.9685 39.7632 24.4256 39.7632 33.6279C39.7632 42.8302 47.2345 50.2873 56.4543 50.2873C59.1125 50.2873 61.6223 49.6626 63.8547 48.5614V50.2873H75.9198V16.9685H63.8547ZM56.4543 41.51C52.0606 41.51 48.4926 37.9425 48.4926 33.5635C48.4926 29.1845 52.067 25.617 56.4543 25.617C60.8416 25.617 64.416 29.1845 64.416 33.5635C64.416 37.9425 60.8416 41.51 56.4543 41.51Z" fill="#777777"/>
<path d="M91.4045 16.9685H79.3394V50.2937H91.4045V16.9685Z" fill="#777777"/>
<path d="M85.3268 12.1194C88.6753 12.1194 91.398 9.40189 91.398 6.05971C91.398 2.71753 88.6753 0 85.3268 0C81.9782 0 79.2555 2.71753 79.2555 6.05971C79.2555 9.40189 81.9782 12.1194 85.3268 12.1194Z" fill="#777777"/>
<path d="M119.29 14.4248V18.9841C116.922 17.6961 114.206 16.9685 111.322 16.9685C102.102 16.9685 94.6304 24.4256 94.6304 33.6278C94.6304 42.8301 102.102 50.2872 111.322 50.2872C114.206 50.2872 116.922 49.5531 119.29 48.2716V50.2872C127.026 50.2872 131.355 44.0279 131.355 36.3132V0.450745C123.619 0.450745 119.29 6.71009 119.29 14.4248ZM110.96 41.51C106.566 41.51 102.999 37.9424 102.999 33.5634C102.999 29.1845 106.573 25.6169 110.96 25.6169C115.348 25.6169 118.922 29.1845 118.922 33.5634C118.922 37.9424 115.348 41.51 110.96 41.51Z" fill="#777777"/>
<path d="M14.2072 58.4205C14.6137 57.6735 15.1879 57.0939 15.917 56.6947C16.646 56.2954 17.4912 56.0894 18.4332 56.0894C19.6462 56.0894 20.6591 56.4049 21.4721 57.036C22.285 57.6671 22.8205 58.5622 23.0721 59.7149H19.9236C19.6591 58.9808 19.1429 58.6073 18.3816 58.6073C17.8396 58.6073 17.4073 58.8198 17.0847 59.2383C16.7622 59.6569 16.6009 60.2623 16.6009 61.0415C16.6009 61.8206 16.7622 62.426 17.0847 62.8446C17.4073 63.2631 17.8396 63.4756 18.3816 63.4756C19.1429 63.4756 19.6591 63.1086 19.9236 62.368H23.0721C22.8205 63.495 22.2786 64.3836 21.4656 65.0276C20.6462 65.6716 19.6397 65.9935 18.4397 65.9935C17.4912 65.9935 16.6525 65.7939 15.9234 65.3882C15.1943 64.9825 14.6201 64.4094 14.2136 63.6624C13.8072 62.9154 13.6007 62.0396 13.6007 61.035C13.6007 60.0304 13.8072 59.1611 14.2136 58.4076L14.2072 58.4205Z" fill="#55B2E5"/>
<path d="M26.4917 65.4011C25.7368 64.9954 25.1432 64.4223 24.711 63.6753C24.2787 62.9283 24.0593 62.0525 24.0593 61.0479C24.0593 60.0433 24.2787 59.1869 24.7174 58.4334C25.1562 57.68 25.7562 57.1004 26.5175 56.7012C27.2788 56.2955 28.1305 56.0958 29.0789 56.0958C30.0274 56.0958 30.879 56.2955 31.6403 56.7012C32.4017 57.1069 33.0017 57.68 33.4404 58.4334C33.8792 59.1869 34.0985 60.0627 34.0985 61.0479C34.0985 62.0332 33.8792 62.909 33.434 63.6624C32.9888 64.4159 32.3823 64.9954 31.6145 65.3947C30.8468 65.8004 29.9886 66 29.0467 66C28.1047 66 27.253 65.8004 26.4917 65.3947V65.4011ZM30.4854 62.8253C30.8855 62.4131 31.0855 61.8207 31.0855 61.0479C31.0855 60.2752 30.8919 59.6827 30.5048 59.2706C30.1177 58.8584 29.6402 58.6459 29.0789 58.6459C28.5176 58.6459 28.0208 58.852 27.6401 59.2577C27.2595 59.6634 27.0724 60.2623 27.0724 61.0415C27.0724 61.8207 27.2595 62.4067 27.6337 62.8188C28.0079 63.231 28.4789 63.4435 29.0467 63.4435C29.6144 63.4435 30.0919 63.2374 30.4919 62.8188L30.4854 62.8253Z" fill="#55B2E5"/>
<path d="M50.8477 57.2099C51.5574 57.9376 51.9123 58.9422 51.9123 60.2301V65.8584H48.9702V60.6294C48.9702 60.0047 48.8089 59.5282 48.4798 59.1869C48.1508 58.8456 47.6992 58.6782 47.1249 58.6782C46.5507 58.6782 46.0926 58.8456 45.77 59.1869C45.441 59.5282 45.2797 60.0047 45.2797 60.6294V65.8584H42.3376V60.6294C42.3376 60.0047 42.1763 59.5282 41.8473 59.1869C41.5182 58.8456 41.0666 58.6782 40.4924 58.6782C39.9181 58.6782 39.46 58.8456 39.1374 59.1869C38.8084 59.5282 38.6471 60.0047 38.6471 60.6294V65.8584H35.6857V56.2246H38.6471V57.4353C38.9439 57.0296 39.3375 56.7141 39.8214 56.4758C40.3052 56.2375 40.8537 56.1216 41.4666 56.1216C42.1957 56.1216 42.8409 56.2762 43.4151 56.5853C43.9893 56.8944 44.4345 57.3387 44.7571 57.9118C45.0926 57.3838 45.5442 56.9523 46.1249 56.6175C46.6991 56.2826 47.3314 56.1152 48.0089 56.1152C49.2089 56.1152 50.1638 56.4758 50.8735 57.2035L50.8477 57.2099Z" fill="#55B2E5"/>
<path d="M69.1712 57.2099C69.8809 57.9376 70.2358 58.9422 70.2358 60.2301V65.8584H67.2937V60.6294C67.2937 60.0047 67.1324 59.5282 66.8033 59.1869C66.4743 58.8456 66.0226 58.6782 65.4484 58.6782C64.8742 58.6782 64.4161 58.8456 64.0935 59.1869C63.7645 59.5282 63.6032 60.0047 63.6032 60.6294V65.8584H60.6611V60.6294C60.6611 60.0047 60.4998 59.5282 60.1707 59.1869C59.8417 58.8456 59.3901 58.6782 58.8158 58.6782C58.2416 58.6782 57.7835 58.8456 57.4609 59.1869C57.1319 59.5282 56.9706 60.0047 56.9706 60.6294V65.8584H54.0092V56.2246H56.9706V57.4353C57.2674 57.0296 57.6609 56.7141 58.1448 56.4758C58.6287 56.2375 59.1771 56.1216 59.7901 56.1216C60.5192 56.1216 61.1643 56.2762 61.7386 56.5853C62.3128 56.8944 62.758 57.3387 63.0806 57.9118C63.4161 57.3838 63.8677 56.9523 64.4484 56.6175C65.0226 56.2826 65.6549 56.1152 66.3323 56.1152C67.5324 56.1152 68.4873 56.4758 69.197 57.2035L69.1712 57.2099Z" fill="#55B2E5"/>
<path d="M81.8427 56.2311V65.8648H78.8813V64.5511C78.5845 64.9761 78.178 65.3174 77.6619 65.5815C77.1457 65.839 76.578 65.9678 75.9586 65.9678C75.223 65.9678 74.5714 65.8068 74.0036 65.4784C73.4359 65.15 72.9971 64.6735 72.6874 64.0553C72.3777 63.4306 72.2229 62.7029 72.2229 61.8658V56.2375H75.165V61.4665C75.165 62.1105 75.3327 62.6128 75.6682 62.967C76.0037 63.3211 76.4554 63.5014 77.0167 63.5014C77.578 63.5014 78.049 63.3211 78.3845 62.967C78.72 62.6128 78.8877 62.1105 78.8877 61.4665V56.2375H81.8492L81.8427 56.2311Z" fill="#55B2E5"/>
<path d="M92.5594 57.2228C93.2369 57.9504 93.5724 58.955 93.5724 60.2365V65.8648H90.6303V60.6358C90.6303 59.9918 90.4625 59.4895 90.127 59.1353C89.7915 58.7812 89.3399 58.6008 88.7786 58.6008C88.2173 58.6008 87.7656 58.7812 87.4301 59.1353C87.0946 59.4895 86.9269 59.9918 86.9269 60.6358V65.8648H83.9655V56.2311H86.9269V57.5061C87.2237 57.0811 87.6302 56.7462 88.1399 56.4951C88.6496 56.2504 89.2173 56.1216 89.8561 56.1216C90.9852 56.1216 91.8884 56.4886 92.5659 57.2163L92.5594 57.2228Z" fill="#55B2E5"/>
<path d="M95.8498 54.7693C95.5208 54.4666 95.3595 54.0867 95.3595 53.6359C95.3595 53.1851 95.5208 52.7923 95.8498 52.4896C96.1789 52.187 96.6047 52.0324 97.1209 52.0324C97.637 52.0324 98.05 52.187 98.3725 52.4896C98.6951 52.7923 98.8629 53.1787 98.8629 53.6359C98.8629 54.0931 98.7016 54.4602 98.3725 54.7693C98.0435 55.0719 97.6241 55.2265 97.1209 55.2265C96.6176 55.2265 96.1789 55.0719 95.8498 54.7693ZM98.5919 56.2311V65.8648H95.6305V56.2311H98.5919Z" fill="#55B2E5"/>
<path d="M106.115 63.3598V65.8648H104.612C103.541 65.8648 102.702 65.6008 102.102 65.0792C101.502 64.5576 101.205 63.7011 101.205 62.5162V58.6846H100.031V56.2311H101.205V53.8806H104.166V56.2311H106.102V58.6846H104.166V62.5548C104.166 62.8446 104.237 63.0507 104.373 63.1795C104.508 63.3083 104.741 63.3662 105.063 63.3662H106.121L106.115 63.3598Z" fill="#55B2E5"/>
<path d="M107.973 54.7693C107.644 54.4666 107.483 54.0867 107.483 53.6359C107.483 53.1851 107.644 52.7923 107.973 52.4896C108.302 52.187 108.728 52.0324 109.244 52.0324C109.76 52.0324 110.173 52.187 110.496 52.4896C110.818 52.7923 110.986 53.1787 110.986 53.6359C110.986 54.0931 110.825 54.4602 110.496 54.7693C110.167 55.0719 109.747 55.2265 109.244 55.2265C108.741 55.2265 108.302 55.0719 107.973 54.7693ZM110.715 56.2311V65.8648H107.754V56.2311H110.715Z" fill="#55B2E5"/>
<path d="M121.909 61.7563H115.212C115.257 62.3552 115.451 62.8124 115.793 63.1279C116.135 63.4435 116.554 63.6045 117.044 63.6045C117.78 63.6045 118.296 63.2954 118.586 62.6707H121.735C121.574 63.3018 121.283 63.8749 120.864 64.3772C120.445 64.886 119.916 65.2788 119.283 65.5686C118.651 65.8583 117.941 66 117.154 66C116.206 66 115.367 65.8004 114.625 65.3947C113.889 64.989 113.309 64.4159 112.896 63.6689C112.483 62.9219 112.27 62.0461 112.27 61.0415C112.27 60.0369 112.476 59.1675 112.883 58.4141C113.289 57.6671 113.864 57.0875 114.606 56.6883C115.348 56.289 116.193 56.0829 117.148 56.0829C118.103 56.0829 118.909 56.2761 119.638 56.669C120.367 57.0618 120.935 57.622 121.341 58.3433C121.748 59.0709 121.954 59.9145 121.954 60.8805C121.954 61.1574 121.935 61.4472 121.903 61.7434L121.909 61.7563ZM118.935 60.1142C118.935 59.6054 118.761 59.2062 118.419 58.9035C118.07 58.6073 117.638 58.4527 117.122 58.4527C116.606 58.4527 116.206 58.5944 115.87 58.8842C115.528 59.174 115.322 59.5797 115.238 60.1077H118.941L118.935 60.1142Z" fill="#55B2E5"/>
<path d="M125.2 65.5686C124.542 65.2788 124.026 64.886 123.645 64.3837C123.264 63.8814 123.051 63.3211 123.006 62.7029H125.929C125.961 63.0378 126.116 63.3082 126.393 63.5143C126.671 63.7204 127.013 63.8234 127.413 63.8234C127.781 63.8234 128.064 63.7526 128.271 63.6045C128.471 63.4628 128.574 63.276 128.574 63.0442C128.574 62.7673 128.432 62.5612 128.142 62.4324C127.852 62.2972 127.387 62.1555 126.742 61.9945C126.051 61.8336 125.471 61.6661 125.013 61.4858C124.555 61.3055 124.155 61.0286 123.819 60.6422C123.484 60.2558 123.316 59.7342 123.316 59.0774C123.316 58.5236 123.471 58.0213 123.774 57.5641C124.077 57.1069 124.529 56.7527 125.122 56.4822C125.716 56.2182 126.426 56.0829 127.245 56.0829C128.458 56.0829 129.413 56.3792 130.11 56.9781C130.806 57.577 131.207 58.369 131.31 59.3607H128.574C128.529 59.0259 128.381 58.7618 128.135 58.5687C127.89 58.3755 127.561 58.2724 127.161 58.2724C126.813 58.2724 126.548 58.3368 126.368 58.4721C126.18 58.6073 126.09 58.7876 126.09 59.013C126.09 59.2899 126.239 59.496 126.529 59.6376C126.819 59.7793 127.284 59.9145 127.903 60.0498C128.619 60.2365 129.2 60.4168 129.652 60.5971C130.103 60.7775 130.497 61.0608 130.839 61.4601C131.181 61.8593 131.355 62.3874 131.368 63.0571C131.368 63.6238 131.207 64.1261 130.89 64.5704C130.574 65.0147 130.116 65.3625 129.523 65.6136C128.929 65.8648 128.239 65.9936 127.458 65.9936C126.619 65.9936 125.864 65.8519 125.206 65.5621L125.2 65.5686Z" fill="#55B2E5"/>
</g>
<defs>
<clipPath id="clip0_70_3">
<rect width="132" height="66" fill="white"/>
</clipPath>
</defs>
</svg>
